<?xml version="1.0" encoding="UTF-8" standalone="no"?><!DOCTYPE svg PUBLIC "-//W3C//DTD SVG 1.1//EN" "http://www.w3.org/Graphics/SVG/1.1/DTD/svg11.dtd"><svg width="100%" height="100%" viewBox="0 0 800 800" version="1.1" xmlns="http://www.w3.org/2000/svg" xmlns:xlink="http://www.w3.org/1999/xlink" xml:space="preserve" xmlns:serif="http://www.serif.com/" style="fill-rule:evenodd;clip-rule:evenodd;stroke-linejoin:round;stroke-miterlimit:2;"><g id="Black"><ellipse cx="400" cy="400" rx="370.292" ry="341.114"/></g><g id="Green"><g id="Border"><path d="M0,400c0,-220.9 179.5,-400 400,-400c220.9,0 400,179.5 400,400c0,220.9 -179.5,400 -400,400c-220.9,0 -400,-179.5 -400,-400Zm100,0c0,165.35 134.3,300 300,300c165.35,0 300,-134.3 300,-300c0,-165.35 -134.3,-300 -300,-300c-165.35,0 -300,134.3 -300,300Z" style="fill:#0df228;"/></g><g id="Arrow"><path d="M507.85,497.5l-106.05,-106.1l-106.1,106.1l-70.7,-70.7l176.8,-176.8l176.75,176.8l-70.7,70.7Z" style="fill:#0df228;"/></g></g><ellipse cx="162.046" cy="638.493" rx="162.046" ry="161.507" style="fill:#f20d5e;"/><g><text x="52.894px" y="776.998px" style="font-family:'Arial-BoldMT', 'Arial', sans-serif;font-weight:700;font-size:356.811px;">T</text></g></svg>