<?xml version="1.0" encoding="UTF-8" standalone="no"?>
<!DOCTYPE svg PUBLIC "-//W3C//DTD SVG 1.1//EN" "http://www.w3.org/Graphics/SVG/1.1/DTD/svg11.dtd">
<svg width="100%" height="100%" viewBox="0 0 800 800" version="1.1" xmlns="http://www.w3.org/2000/svg" xmlns:xlink="http://www.w3.org/1999/xlink" xml:space="preserve" xmlns:serif="http://www.serif.com/" style="fill-rule:evenodd;clip-rule:evenodd;stroke-linejoin:round;stroke-miterlimit:2;">
    <g id="Black" transform="matrix(1,0,0,1,3.71353,37.6658)">
        <ellipse cx="396.286" cy="362.334" rx="370.292" ry="341.114"/>
    </g>
    <g id="Gray">
        <g id="Border" transform="matrix(50,0,0,50,0,0)">
            <path d="M0,8C0,3.582 3.59,0 8,0C12.418,0 16,3.59 16,8C16,12.418 12.41,16 8,16C3.582,16 0,12.41 0,8ZM2,8C2,11.307 4.686,14 8,14C11.307,14 14,11.314 14,8C14,4.693 11.314,2 8,2C4.693,2 2,4.686 2,8Z" style="fill:rgb(191,191,191);"/>
        </g>
        <g id="Arrow" transform="matrix(50,0,0,50,0,0)">
            <path d="M10.157,9.95L8.036,7.828L5.914,9.95L4.5,8.536L8.036,5L11.571,8.536L10.157,9.95Z" style="fill:rgb(191,191,191);"/>
        </g>
    </g>
</svg>
