<?xml version="1.0" encoding="UTF-8" standalone="no"?>
<!DOCTYPE svg PUBLIC "-//W3C//DTD SVG 1.1//EN" "http://www.w3.org/Graphics/SVG/1.1/DTD/svg11.dtd">
<svg width="100%" height="100%" viewBox="0 0 650 650" version="1.1" xmlns="http://www.w3.org/2000/svg" xmlns:xlink="http://www.w3.org/1999/xlink" xml:space="preserve" xmlns:serif="http://www.serif.com/" style="fill-rule:evenodd;clip-rule:evenodd;stroke-linejoin:round;stroke-miterlimit:10;">
    <g id="Default" transform="matrix(1,0,0,1,-75,-75)">
        <g transform="matrix(3.125,0,0,3.125,0,0)">
            <g>
                <circle cx="128" cy="128" r="96"/>
            </g>
        </g>
        <g transform="matrix(3.125,0,0,3.125,0,0)">
            <path d="M128,24C70.947,24 24,70.947 24,128C24,185.053 70.947,232 128,232C185.053,232 232,185.053 232,128C231.935,70.972 185.028,24.065 128,24ZM128,216C79.725,216 40,176.275 40,128C40,79.725 79.725,40 128,40C176.275,40 216,79.725 216,128C215.945,176.255 176.255,215.945 128,216Z" style="fill:rgb(191,191,191);fill-rule:nonzero;"/>
            <g transform="matrix(15.0621,0,0,15.0621,-112.993,-92.4966)">
                <path d="M11,18L16,13L21,18" style="fill:none;fill-rule:nonzero;stroke:rgb(191,191,191);stroke-width:1.56px;"/>
            </g>
        </g>
    </g>
</svg>
