<?xml version="1.0" encoding="UTF-8" standalone="no"?>
<!DOCTYPE svg PUBLIC "-//W3C//DTD SVG 1.1//EN" "http://www.w3.org/Graphics/SVG/1.1/DTD/svg11.dtd">
<svg width="100%" height="100%" viewBox="0 0 800 800" version="1.1" xmlns="http://www.w3.org/2000/svg" xmlns:xlink="http://www.w3.org/1999/xlink" xml:space="preserve" xmlns:serif="http://www.serif.com/" style="fill-rule:evenodd;clip-rule:evenodd;stroke-linejoin:round;stroke-miterlimit:2;">
    <g transform="matrix(33.3333,0,0,33.3333,0,0)">
        <path d="M3.515,0.515C1.344,2.685 0,5.687 0,9C0,12.313 1.344,15.315 3.515,17.485L4.929,16.071C3.118,14.26 2,11.762 2,9C2,6.238 3.118,3.74 4.929,1.929L3.515,0.515ZM6.343,3.343C4.897,4.79 4,6.791 4,9C4,11.209 4.897,13.21 6.343,14.657L7.757,13.243C6.67,12.156 6,10.657 6,9C6,7.343 6.67,5.844 7.757,4.757L6.343,3.343ZM12,5C9.791,5 8,6.791 8,9C8,10.864 9.275,12.43 11,12.874L11,23L13,23L13,12.874C14.725,12.43 16,10.864 16,9C16,6.791 14.209,5 12,5ZM10,9C10,7.895 10.895,7 12,7C13.105,7 14,7.895 14,9C14,10.105 13.105,11 12,11C10.895,11 10,10.105 10,9ZM17.657,3.343C19.103,4.79 20,6.791 20,9C20,11.209 19.103,13.21 17.657,14.657L16.243,13.243C17.33,12.156 18,10.657 18,9C18,7.343 17.33,5.844 16.243,4.757L17.657,3.343ZM20.485,0.515C22.656,2.685 24,5.687 24,9C24,12.313 22.656,15.315 20.485,17.485L19.071,16.071C20.882,14.26 22,11.762 22,9C22,6.238 20.882,3.74 19.071,1.929L20.485,0.515Z" style="fill:white;"/>
    </g>
</svg>
