<?xml version="1.0" encoding="UTF-8" standalone="no"?>
<!DOCTYPE svg PUBLIC "-//W3C//DTD SVG 1.1//EN" "http://www.w3.org/Graphics/SVG/1.1/DTD/svg11.dtd">
<svg width="100%" height="100%" viewBox="0 0 20 20" version="1.1" xmlns="http://www.w3.org/2000/svg" xmlns:xlink="http://www.w3.org/1999/xlink" xml:space="preserve" xmlns:serif="http://www.serif.com/" style="fill-rule:evenodd;clip-rule:evenodd;stroke-linecap:square;stroke-linejoin:bevel;">
    <g transform="matrix(1,0,0,1,-607.63544,-694.58531)">
        <path d="M617.64,695.59C617.174,695.59 616.706,695.649 616.259,695.718C616.188,696.864 616.008,697.983 615.058,698.377C614.105,698.772 613.21,698.091 612.347,697.329C611.593,697.879 610.904,698.544 610.353,699.297C611.119,700.162 611.823,701.052 611.427,702.008C611.032,702.962 609.894,703.139 608.742,703.209C608.672,703.662 608.64,704.118 608.64,704.59C608.64,705.068 608.671,705.538 608.742,705.996C609.894,706.067 611.032,706.192 611.427,707.147C611.823,708.103 611.119,709.043 610.353,709.908C610.901,710.656 611.599,711.304 612.347,711.851C613.207,711.092 614.108,710.435 615.058,710.829C616.012,711.224 616.189,712.336 616.259,713.488C616.706,713.556 617.174,713.59 617.64,713.59C618.106,713.59 618.548,713.556 618.995,713.488C619.066,712.336 619.242,711.224 620.197,710.829C621.146,710.436 622.047,711.092 622.907,711.851C623.656,711.304 624.353,710.656 624.901,709.908C624.136,709.043 623.431,708.103 623.827,707.147C624.223,706.192 625.386,706.067 626.538,705.996C626.609,705.538 626.64,705.068 626.64,704.59C626.64,704.118 626.607,703.662 626.538,703.209C625.386,703.139 624.223,702.962 623.827,702.008C623.432,701.052 624.136,700.162 624.901,699.297C624.35,698.544 623.661,697.879 622.907,697.329C622.044,698.091 621.149,698.772 620.197,698.377C619.246,697.983 619.066,696.864 618.995,695.718C618.548,695.649 618.106,695.59 617.64,695.59ZM617.64,701.65C619.266,701.65 620.58,702.964 620.58,704.59C620.58,706.216 619.266,707.53 617.64,707.53C616.014,707.53 614.674,706.216 614.674,704.59C614.674,702.964 616.014,701.65 617.64,701.65Z" style="fill:rgb(153,153,153);fill-rule:nonzero;stroke:rgb(51,51,51);stroke-width:1px;"/>
    </g>
</svg>
