<?xml version="1.0" encoding="UTF-8" standalone="no"?><!DOCTYPE svg PUBLIC "-//W3C//DTD SVG 1.1//EN" "http://www.w3.org/Graphics/SVG/1.1/DTD/svg11.dtd"><svg width="100%" height="100%" viewBox="0 0 800 800" version="1.1" xmlns="http://www.w3.org/2000/svg" xmlns:xlink="http://www.w3.org/1999/xlink" xml:space="preserve" xmlns:serif="http://www.serif.com/" style="fill-rule:evenodd;clip-rule:evenodd;stroke-linejoin:round;stroke-miterlimit:2;"><path d="M76.562,23.438l-53.125,53.125l700,700l53.125,-53.125l-119.141,-119.141c63.281,-53.125 108.594,-124.805 129.492,-204.883c-45.703,-176.172 -204.883,-299.219 -386.914,-299.414c-68.359,0.586 -135.352,18.555 -194.727,52.148l-128.711,-128.711Zm323.438,176.562c110.547,0 200,89.453 200,200c-0.195,40.039 -12.305,78.906 -34.961,111.914l-73.438,-73.438c5.273,-12.109 8.203,-25.195 8.398,-38.477c0,-55.273 -44.727,-100 -100,-100c-13.281,0.195 -26.367,3.125 -38.477,8.398l-73.438,-73.438c33.008,-22.656 71.875,-34.766 111.914,-34.961Zm-307.227,45.898c-37.695,44.922 -64.844,97.852 -79.688,154.687c45.703,176.172 204.883,299.219 386.914,299.414c42.773,-0.391 85.156,-7.617 125.586,-21.289l-83.398,-83.398c-13.867,2.93 -28.125,4.492 -42.188,4.688c-110.547,0 -200,-89.453 -200,-200c0.195,-14.062 1.758,-28.32 4.688,-42.188l-111.914,-111.914Z" style="fill:#fff;fill-rule:nonzero;"/></svg>