<?xml version="1.0" encoding="UTF-8" standalone="no"?><!DOCTYPE svg PUBLIC "-//W3C//DTD SVG 1.1//EN" "http://www.w3.org/Graphics/SVG/1.1/DTD/svg11.dtd"><svg width="100%" height="100%" viewBox="0 0 800 800" version="1.1" xmlns="http://www.w3.org/2000/svg" xmlns:xlink="http://www.w3.org/1999/xlink" xml:space="preserve" xmlns:serif="http://www.serif.com/" style="fill-rule:evenodd;clip-rule:evenodd;stroke-linejoin:round;stroke-miterlimit:2;"><path d="M400,100c-182.422,0.195 -341.602,123.828 -386.914,300.391c45.703,176.367 204.883,299.414 386.914,299.609c182.422,-0.195 341.602,-123.828 386.914,-300.586c-45.703,-176.172 -204.883,-299.219 -386.914,-299.414Zm0,100c110.547,0 200,89.453 200,200c0,110.547 -89.453,200 -200,200c-110.547,0 -200,-89.453 -200,-200c0,-110.547 89.453,-200 200,-200Zm0,100c-55.273,0 -100,44.727 -100,100c0,55.273 44.727,100 100,100c55.273,0 100,-44.727 100,-100c0,-55.273 -44.727,-100 -100,-100Z" style="fill:#2e3436;fill-rule:nonzero;"/></svg>