<?xml version="1.0" encoding="UTF-8" standalone="no"?>
<!DOCTYPE svg PUBLIC "-//W3C//DTD SVG 1.1//EN" "http://www.w3.org/Graphics/SVG/1.1/DTD/svg11.dtd">
<svg width="100%" height="100%" viewBox="0 0 800 800" version="1.1" xmlns="http://www.w3.org/2000/svg" xmlns:xlink="http://www.w3.org/1999/xlink" xml:space="preserve" xmlns:serif="http://www.serif.com/" style="fill-rule:evenodd;clip-rule:evenodd;stroke-linejoin:round;stroke-miterlimit:2;">
    <g id="Black" transform="matrix(1,0,0,1,3.71353,37.6658)">
        <ellipse cx="396.286" cy="362.334" rx="370.292" ry="341.114"/>
    </g>
    <g id="Gray">
        <g id="Border" transform="matrix(50,0,0,50,0,0)">
            <path d="M0,8C0,3.582 3.59,0 8,0C12.418,0 16,3.59 16,8C16,12.418 12.41,16 8,16C3.582,16 0,12.41 0,8ZM2,8C2,11.307 4.686,14 8,14C11.307,14 14,11.314 14,8C14,4.693 11.314,2 8,2C4.693,2 2,4.686 2,8Z" style="fill:rgb(191,191,191);"/>
        </g>
        <g transform="matrix(40.756,0,0,40.756,75.3216,74.4411)">
            <path d="M5.255,5.786C5.255,5.789 5.255,5.793 5.255,5.796C5.255,5.926 5.362,6.033 5.492,6.033C5.493,6.033 5.495,6.033 5.496,6.033L6.321,6.033C6.459,6.033 6.569,5.92 6.587,5.783C6.677,5.127 7.127,4.649 7.929,4.649C8.615,4.649 9.243,4.992 9.243,5.817C9.243,6.452 8.869,6.744 8.278,7.188C7.605,7.677 7.072,8.248 7.11,9.175L7.113,9.392C7.115,9.528 7.227,9.638 7.363,9.638L8.174,9.638C8.311,9.638 8.424,9.525 8.424,9.388L8.424,9.283C8.424,8.565 8.697,8.356 9.434,7.797C10.043,7.334 10.678,6.82 10.678,5.741C10.678,4.23 9.402,3.5 8.005,3.5C6.738,3.5 5.35,4.09 5.255,5.786ZM6.812,11.549C6.812,12.082 7.237,12.476 7.822,12.476C8.431,12.476 8.85,12.082 8.85,11.549C8.85,10.997 8.43,10.609 7.821,10.609C7.237,10.609 6.812,10.997 6.812,11.549Z" style="fill:rgb(191,191,191);fill-rule:nonzero;"/>
        </g>
    </g>
</svg>
