<?xml version="1.0" encoding="UTF-8" standalone="no"?>
<!DOCTYPE svg PUBLIC "-//W3C//DTD SVG 1.1//EN" "http://www.w3.org/Graphics/SVG/1.1/DTD/svg11.dtd">
<svg width="100%" height="100%" viewBox="0 0 650 650" version="1.1" xmlns="http://www.w3.org/2000/svg" xmlns:xlink="http://www.w3.org/1999/xlink" xml:space="preserve" xmlns:serif="http://www.serif.com/" style="fill-rule:evenodd;clip-rule:evenodd;stroke-linejoin:round;stroke-miterlimit:2;">
    <g id="Unknown" transform="matrix(1,0,0,1,-75,-75)">
        <g transform="matrix(3.125,0,0,3.125,0,0)">
            <g>
                <circle cx="128" cy="128" r="96"/>
                <g transform="matrix(13.1981,0,0,13.107,22.8574,23.3015)">
                    <path d="M5.255,5.786L5.255,5.796C5.255,5.926 5.362,6.033 5.492,6.033L6.321,6.033C6.459,6.033 6.569,5.92 6.587,5.783C6.677,5.127 7.127,4.649 7.929,4.649C8.615,4.649 9.243,4.992 9.243,5.817C9.243,6.452 8.869,6.744 8.278,7.188C7.605,7.677 7.072,8.248 7.11,9.175L7.113,9.392C7.115,9.528 7.227,9.638 7.363,9.638L8.174,9.638C8.311,9.638 8.424,9.525 8.424,9.388L8.424,9.283C8.424,8.565 8.697,8.356 9.434,7.797C10.043,7.334 10.678,6.82 10.678,5.741C10.678,4.23 9.402,3.5 8.005,3.5C6.738,3.5 5.35,4.09 5.255,5.786ZM6.812,11.549C6.812,12.082 7.237,12.476 7.822,12.476C8.431,12.476 8.85,12.082 8.85,11.549C8.85,10.997 8.43,10.609 7.821,10.609C7.237,10.609 6.812,10.997 6.812,11.549Z" style="fill:rgb(242,13,13);fill-rule:nonzero;"/>
                </g>
            </g>
        </g>
        <g transform="matrix(3.125,0,0,3.125,0,0)">
            <path d="M128,24C70.947,24 24,70.947 24,128C24,185.053 70.947,232 128,232C185.053,232 232,185.053 232,128C231.935,70.972 185.028,24.065 128,24ZM128,216C79.725,216 40,176.275 40,128C40,79.725 79.725,40 128,40C176.275,40 216,79.725 216,128C215.945,176.255 176.255,215.945 128,216Z" style="fill:rgb(242,13,13);fill-rule:nonzero;"/>
        </g>
    </g>
</svg>
