<?xml version="1.0" encoding="UTF-8" standalone="no"?>
<!DOCTYPE svg PUBLIC "-//W3C//DTD SVG 1.1//EN" "http://www.w3.org/Graphics/SVG/1.1/DTD/svg11.dtd">
<svg width="100%" height="100%" viewBox="0 0 1260 1575" version="1.1" xmlns="http://www.w3.org/2000/svg" xmlns:xlink="http://www.w3.org/1999/xlink" xml:space="preserve" xmlns:serif="http://www.serif.com/" style="fill-rule:evenodd;clip-rule:evenodd;stroke-linejoin:round;stroke-miterlimit:2;">
    <g transform="matrix(1.07952,0,0,1.07952,-443.672,-16.4386)">
        <g id="Right-Semaphore" serif:id="Right Semaphore" transform="matrix(-0.830454,-0.697074,-0.697074,0.830454,2261.88,216.676)">
            <g id="Frame">
                <path d="M573.211,924.522L579.211,1115.52C579.211,1115.52 586.129,1152.7 551.703,1152.7C517.277,1152.7 533.5,1102.52 533.5,1102.52L526.5,1096.52C526.5,1096.52 559.73,1057.56 512.5,998.522C484.5,963.522 428.5,971.522 428.5,971.522C428.5,971.522 313.727,983.697 237.5,1102.52C169.5,1208.52 197.5,1310.52 197.5,1310.52C197.5,1310.52 218.686,1401.2 294.5,1406.52C351.5,1410.52 385.5,1359.52 385.5,1359.52C385.5,1359.52 382.5,1364.52 396.5,1364.52C410.5,1364.52 436.5,1347.52 472.5,1350.52C508.5,1353.52 482.562,1353.38 518.562,1359.38C554.562,1365.38 716.211,1391.67 716.211,1177.52C716.211,1156.52 707.211,921.522 710.211,922.522C713.211,923.522 573.211,924.522 573.211,924.522Z" style="fill:rgb(128,128,128);"/>
            </g>
            <g id="Flag" transform="matrix(1,5.55112e-17,-5.55112e-17,1,-114.786,25.5709)">
                <g id="Red">
                    <path d="M698.872,1108.83L827.72,1092.75L803.5,364.513C803.5,364.513 795.5,297.878 723.5,299.513C651.5,301.148 650.5,369.148 650.5,369.148L698.872,1108.83Z" style="fill:rgb(128,128,128);"/>
                </g>
            </g>
            <g id="Lights">
                <g transform="matrix(2.22874,0,0,2.22874,-1618.6,203.404)">
                    <circle cx="859.92" cy="498.428" r="28.484" style="fill:rgb(242,13,13);"/>
                </g>
                <g transform="matrix(2.22929,0,0,2.22929,-1604.43,42.4752)">
                    <circle cx="859.92" cy="498.428" r="28.484" style="fill:rgb(242,175,13);"/>
                </g>
                <g transform="matrix(2.22929,0,0,2.22929,-1473.08,-55.6363)">
                    <circle cx="859.92" cy="498.428" r="28.484" style="fill:rgb(74,230,26);"/>
                </g>
            </g>
        </g>
        <g id="Right-Semaphore1" serif:id="Right Semaphore" transform="matrix(0.830454,-0.697074,0.697074,0.830454,-284.326,216.676)">
            <g id="Frame1" serif:id="Frame">
                <path d="M573.211,924.522L579.211,1115.52C579.211,1115.52 586.129,1152.7 551.703,1152.7C517.277,1152.7 533.5,1102.52 533.5,1102.52L526.5,1096.52C526.5,1096.52 559.73,1057.56 512.5,998.522C484.5,963.522 428.5,971.522 428.5,971.522C428.5,971.522 313.727,983.697 237.5,1102.52C169.5,1208.52 197.5,1310.52 197.5,1310.52C197.5,1310.52 218.686,1401.2 294.5,1406.52C351.5,1410.52 385.5,1359.52 385.5,1359.52C385.5,1359.52 382.5,1364.52 396.5,1364.52C410.5,1364.52 436.5,1347.52 472.5,1350.52C508.5,1353.52 482.562,1353.38 518.562,1359.38C554.562,1365.38 716.211,1391.67 716.211,1177.52C716.211,1156.52 707.211,921.522 710.211,922.522C713.211,923.522 573.211,924.522 573.211,924.522Z"/>
            </g>
            <g id="Flag1" serif:id="Flag" transform="matrix(1,5.55112e-17,-5.55112e-17,1,-114.786,25.5709)">
                <g id="Red1" serif:id="Red">
                    <path d="M694.482,1103.54L830.638,1091.18L803.5,364.513C803.5,364.513 795.5,297.878 723.5,299.513C651.5,301.148 650.5,369.148 650.5,369.148L694.482,1103.54Z" style="fill:rgb(255,0,0);"/>
                    <g>
                        <clipPath id="_clip1">
                            <path d="M694.482,1103.54L830.638,1091.18L803.5,364.513C803.5,364.513 795.5,297.878 723.5,299.513C651.5,301.148 650.5,369.148 650.5,369.148L694.482,1103.54Z"/>
                        </clipPath>
                        <g clip-path="url(#_clip1)">
                            <path d="M646.5,462.938L825.5,461.938L832.5,538.938L650.5,541.938L646.5,462.938Z" style="fill:white;"/>
                            <path d="M657.5,611.938L834.5,611.938L839.5,688.938L657.5,692.938L657.5,611.938Z" style="fill:white;"/>
                        </g>
                    </g>
                </g>
            </g>
            <g id="Lights1" serif:id="Lights">
                <g transform="matrix(2.22874,0,0,2.22874,-1618.6,203.404)">
                    <circle cx="859.92" cy="498.428" r="28.484" style="fill:rgb(242,13,13);"/>
                </g>
                <g transform="matrix(2.22929,0,0,2.22929,-1604.43,42.4752)">
                    <circle cx="859.92" cy="498.428" r="28.484" style="fill:rgb(242,175,13);"/>
                </g>
                <g transform="matrix(2.22929,0,0,2.22929,-1473.08,-55.6363)">
                    <circle cx="859.92" cy="498.428" r="28.484" style="fill:rgb(74,230,26);"/>
                </g>
            </g>
        </g>
    </g>
    <g id="Rugby-Junction-Wisconsin" serif:id="Rugby Junction Wisconsin" transform="matrix(0.783187,0,0,0.783187,302.696,244.673)">
        <g transform="matrix(1.42781,0,0,1.42781,-337.921,-369.778)">
            <path d="M524.341,421.581C795.576,421.581 1015.78,641.789 1015.78,913.024C1015.78,1184.26 795.576,1404.47 524.341,1404.47C253.107,1404.47 32.898,1184.26 32.898,913.024C32.898,641.789 253.107,421.581 524.341,421.581ZM525.546,585.395C709.693,585.395 859.197,734.899 859.197,919.046C859.197,1103.19 709.693,1252.7 525.546,1252.7C341.399,1252.7 191.895,1103.19 191.895,919.046C191.895,734.899 341.399,585.395 525.546,585.395Z"/>
        </g>
        <g transform="matrix(1.07952,0,0,1.07952,-155.297,-51.7798)">
            <path d="M-12.637,947.123L24.523,946.947C26.163,946.939 27.433,946.536 28.331,945.739C29.23,944.942 29.921,943.585 30.404,941.669L33.029,941.656L33.195,976.601L30.57,976.614C30.014,974.647 29.296,973.284 28.418,972.522C27.539,971.761 26.28,971.384 24.639,971.392L-70.188,971.843C-71.883,971.851 -73.167,972.24 -74.038,973.01C-74.909,973.779 -75.614,975.15 -76.151,977.121L-78.776,977.134L-79.109,907.08C-79.15,898.549 -78.69,891.779 -77.73,886.77C-76.769,881.762 -75.067,877.392 -72.624,873.662C-69.801,869.328 -65.961,866.083 -61.104,863.927C-56.41,861.881 -51.384,860.846 -46.024,860.82C-27.759,860.733 -17.02,870.827 -13.806,891.101L17.016,869.216C22.412,865.362 25.885,862.543 27.435,860.758C28.985,858.973 29.836,856.795 29.988,854.224L32.613,854.212L32.805,894.667L30.18,894.679C29.73,891.897 28.739,890.509 27.207,890.516C26.223,890.521 23.85,891.815 20.089,894.399L-12.779,917.234L-12.637,947.123ZM-31.094,947.211L-31.273,909.477C-31.3,903.899 -31.483,899.963 -31.822,897.667C-32.161,895.372 -32.854,893.27 -33.903,891.361C-36.164,887.215 -40.221,885.156 -46.073,885.184C-51.924,885.212 -55.961,887.309 -58.183,891.476C-59.268,893.45 -59.955,895.545 -60.245,897.761C-60.536,899.978 -60.667,903.93 -60.64,909.617L-60.461,947.351L-31.094,947.211Z" style="fill:white;fill-rule:nonzero;"/>
            <path d="M-35.736,704.927L24.866,721.216C36.327,724.297 44.341,728.716 48.909,734.474C57.111,744.833 58.011,761.922 51.608,785.74C46.981,802.957 40.666,815.389 32.665,823.035C28.01,827.503 22.633,830.022 16.534,830.591C10.502,831.122 3.683,830.365 -3.922,828.321L-64.525,812.031C-66.162,811.591 -67.503,811.628 -68.546,812.14C-69.59,812.652 -70.631,813.788 -71.671,815.547L-74.206,814.866L-65.135,781.118L-62.6,781.8C-62.628,783.8 -62.307,785.294 -61.638,786.282C-60.97,787.27 -59.817,787.984 -58.179,788.424L-4.231,802.925C2.001,804.6 6.701,805.495 9.87,805.611C13.038,805.726 15.881,805.103 18.399,803.741C25.149,800.119 30.17,792.182 33.464,779.929C36.771,767.624 36.413,758.212 32.389,751.694C30.879,749.306 28.724,747.368 25.925,745.879C23.125,744.391 18.61,742.809 12.378,741.134L-41.571,726.633C-43.208,726.193 -44.548,726.229 -45.592,726.741C-46.636,727.253 -47.677,728.389 -48.717,730.149L-51.252,729.467L-42.692,697.621L-40.157,698.302C-40.14,700.346 -39.808,701.85 -39.162,702.817C-38.515,703.783 -37.374,704.487 -35.736,704.927Z" style="fill:white;fill-rule:nonzero;"/>
            <path d="M90.313,603.565L75.9,627.155C75.016,628.602 74.68,629.886 74.891,631.009C75.102,632.131 75.906,633.439 77.3,634.932L75.932,637.172L53.672,623.572L55.041,621.332C57.052,621.921 58.593,622.046 59.664,621.709C60.736,621.372 61.713,620.481 62.596,619.035L90.271,573.739L92.511,575.108C91.967,577.047 91.865,578.578 92.204,579.7C92.544,580.823 93.437,581.826 94.884,582.71L114.484,594.685C115.931,595.569 117.224,595.917 118.363,595.73C119.503,595.543 120.826,594.742 122.331,593.327L124.081,594.396C123.357,618.868 117.795,639.614 107.394,656.637C97.963,672.073 86.606,682.427 73.324,687.698C56.59,694.318 40.01,692.609 23.583,682.573C8.276,673.221 -0.568,660.319 -2.949,643.868C-5.206,628.262 -1.088,611.872 9.405,594.699C12.741,589.239 16.386,584.4 20.34,580.183C24.295,575.966 29.344,571.505 35.487,566.799C38.686,564.395 40.699,562.517 41.526,561.164C42.125,560.184 42.286,558.712 42.011,556.75L44.259,555.432L60.284,580.652L58,582.043C56.439,581.153 55.208,580.689 54.306,580.651C53.405,580.613 52.067,580.949 50.294,581.658C46.419,583.198 42.046,586.259 37.173,590.84C32.301,595.422 28.369,600.162 25.377,605.059C19.278,615.041 17.017,625.029 18.593,635.023C20.402,646.313 26.504,655.134 36.9,661.486C46.969,667.638 57.313,668.991 67.933,665.546C77.669,662.394 85.844,655.405 92.459,644.578C95.681,639.305 98.254,633.731 100.177,627.856C102.1,621.982 103.152,616.536 103.333,611.52L90.313,603.565Z" style="fill:white;fill-rule:nonzero;"/>
            <path d="M185.756,477.691C198.279,472.788 208.848,475.105 217.464,484.641C224.32,492.229 226.973,500.63 225.422,509.844C224.605,514.487 222.812,518.927 220.042,523.162C217.272,527.397 213.209,531.934 207.853,536.773L151.065,588.084L149.305,586.136C150.399,584.41 150.937,582.966 150.918,581.804C150.9,580.641 150.322,579.431 149.186,578.173L85.666,507.873C84.53,506.615 83.384,505.918 82.23,505.782C81.075,505.646 79.584,506.035 77.756,506.949L75.997,505.002L132.237,454.186C137.634,449.31 142.342,445.793 146.362,443.635C150.382,441.476 154.51,440.253 158.745,439.964C167.138,439.383 174.615,442.724 181.178,449.987C188.511,458.103 190.037,467.337 185.756,477.691ZM127.892,518.144L159.725,489.381C164.554,485.018 167.28,481.265 167.904,478.122C168.588,474.556 167.39,471.068 164.311,467.66C161.158,464.17 157.898,462.601 154.531,462.953C151.163,463.305 147.066,465.663 142.237,470.026L110.404,498.788L127.892,518.144ZM160.724,554.481L191.523,526.653C197.244,521.484 200.648,516.971 201.734,513.115C202.965,508.686 201.71,504.402 197.971,500.263C194.268,496.165 190.133,494.484 185.565,495.221C181.66,495.875 176.826,498.805 171.064,504.011L140.266,531.839L160.724,554.481Z" style="fill:white;fill-rule:nonzero;"/>
            <path d="M284.699,430.778L302.537,464.628C303.328,466.13 304.273,467.085 305.371,467.496C306.47,467.907 308.005,467.902 309.975,467.483L311.199,469.805L280.138,486.173L278.914,483.851C280.401,482.448 281.303,481.169 281.62,480.012C281.938,478.855 281.701,477.526 280.91,476.024L263.073,442.174L207.336,414.001C202.54,411.586 199.005,410.128 196.732,409.627C194.459,409.126 192.158,409.305 189.828,410.162L188.604,407.839L227.718,387.228L228.942,389.55C225.981,391.791 225.15,394.143 226.449,396.609C226.908,397.479 228.906,398.867 232.443,400.77L264.265,417.866L268.665,381.684C269.145,377.786 269.118,375.329 268.583,374.313C267.997,373.201 267.058,372.476 265.767,372.137C264.476,371.799 263.017,371.904 261.389,372.452L260.166,370.13L298.478,349.941L299.702,352.263C297.677,353.701 296.229,355.499 295.358,357.657C294.486,359.814 293.69,363.554 292.971,368.876L284.699,430.778Z" style="fill:white;fill-rule:nonzero;"/>
            <path d="M389.467,433.632L394.725,403.83L397.307,404.278C397.371,404.933 397.441,405.476 397.52,405.906C397.92,408.113 399.664,409.908 402.75,411.293C405.998,412.648 410.174,413.529 415.278,413.936C420.382,414.343 425.167,414.14 429.633,413.329C436.843,412.019 441.791,409.425 444.477,405.547C445.842,403.575 446.613,401.393 446.789,398.998C446.966,396.604 446.634,393.093 445.793,388.466L434.224,324.786C433.921,323.118 433.315,321.922 432.405,321.197C431.496,320.473 430.023,320.018 427.989,319.832L427.519,317.249L461.902,311.003L462.371,313.586C460.532,314.476 459.314,315.42 458.717,316.418C458.12,317.415 457.973,318.748 458.276,320.416L470.065,385.307C472,395.961 471.918,403.924 469.819,409.197C467.607,414.768 463.681,419.469 458.041,423.301C452.4,427.132 445.491,429.791 437.312,431.277C432.631,432.127 428.513,432.556 424.956,432.563C421.4,432.569 415.511,432.125 407.289,431.228C402.192,430.709 398.621,430.635 396.577,431.007C394.801,431.329 393.297,432.381 392.064,434.161L389.467,433.632Z" style="fill:white;fill-rule:nonzero;"/>
            <path d="M621.058,323.465L616.737,386.07C615.919,397.909 613.125,406.624 608.354,412.215C599.767,422.257 583.17,426.428 558.565,424.73C540.779,423.502 527.365,419.698 518.322,413.318C513.041,409.61 509.535,404.818 507.802,398.942C506.121,393.125 505.551,386.288 506.094,378.432L510.415,315.827C510.532,314.136 510.239,312.827 509.535,311.902C508.832,310.976 507.517,310.173 505.59,309.492L505.771,306.873L540.633,309.279L540.453,311.898C538.484,312.256 537.08,312.858 536.239,313.704C535.398,314.551 534.919,315.819 534.803,317.511L530.955,373.241C530.511,379.679 530.537,384.464 531.033,387.595C531.53,390.727 532.689,393.397 534.51,395.606C539.363,401.532 548.118,404.932 560.776,405.806C573.488,406.683 582.654,404.521 588.276,399.317C590.329,397.376 591.816,394.888 592.738,391.855C593.66,388.821 594.343,384.086 594.788,377.648L598.635,321.917C598.752,320.226 598.458,318.917 597.755,317.992C597.051,317.066 595.736,316.263 593.81,315.582L593.991,312.963L626.889,315.234L626.708,317.853C624.707,318.263 623.294,318.878 622.47,319.698C621.645,320.518 621.175,321.774 621.058,323.465Z" style="fill:white;fill-rule:nonzero;"/>
            <path d="M690.491,368.453L666.573,432.2C665.977,433.787 665.884,435.125 666.294,436.213C666.703,437.301 667.733,438.447 669.384,439.651L668.462,442.109L637.664,430.553L638.586,428.095C640.622,428.275 642.152,428.09 643.176,427.539C644.2,426.989 645.01,425.92 645.605,424.333L678.918,335.549C679.494,334.013 679.577,332.701 679.168,331.612C678.759,330.524 677.728,329.378 676.077,328.175L676.999,325.717L712.636,339.088L711.714,341.546C709.301,341.283 707.758,342.047 707.086,343.839C706.625,345.068 706.832,346.694 707.709,348.717L742.978,430.553L766.32,368.342C766.896,366.806 766.979,365.494 766.57,364.406C766.16,363.318 765.13,362.172 763.479,360.968L764.401,358.51L795.199,370.066L794.277,372.524C792.242,372.344 790.712,372.529 789.688,373.08C788.663,373.63 787.863,374.673 787.287,376.209L753.975,464.994C753.379,466.581 753.286,467.919 753.696,469.007C754.105,470.095 755.135,471.241 756.786,472.444L755.864,474.902L722.839,462.511L723.761,460.053C726.084,460.399 727.573,459.702 728.226,457.961C728.61,456.937 728.028,454.674 726.48,451.173L690.491,368.453Z" style="fill:white;fill-rule:nonzero;"/>
            <path d="M882.867,520.032L881.137,548.043L878.544,547.929C878.188,545.869 877.618,544.54 876.835,543.944C876.051,543.348 873.057,542.722 867.852,542.066C857.081,540.689 848.565,538.807 842.306,536.421C836.047,534.035 829.393,530.16 822.342,524.795C808.285,514.098 799.286,501.993 795.344,488.479C792.982,480.565 792.464,472.577 793.789,464.514C795.264,455.26 799.016,446.673 805.043,438.752C813.256,427.959 823.548,420.982 835.919,417.82C854.513,413.071 873.407,417.999 892.599,432.604C899.649,437.969 905.135,443.312 909.058,448.633C912.98,453.954 917.072,461.672 921.333,471.786C923.388,476.58 924.808,479.276 925.591,479.872C926.374,480.468 927.806,480.664 929.885,480.459L930.689,482.926L904.128,492.093L903.256,489.58C903.871,488.953 904.36,488.401 904.723,487.924C905.68,486.667 906.034,485.072 905.788,483.138C905.541,481.205 904.619,478.398 903.021,474.717C898.617,464.521 892.107,456.144 883.49,449.587C873.306,441.837 863.254,438.204 853.334,438.687C841.665,439.212 832.174,444.279 824.863,453.886C817.552,463.494 815.199,473.991 817.804,485.379C819.983,495.068 826.164,503.788 836.348,511.537C844.965,518.094 854.78,522.128 865.795,523.638C869.773,524.19 872.728,524.326 874.66,524.044C876.593,523.762 878.039,522.99 878.999,521.728C879.364,521.249 879.751,520.65 880.16,519.931L882.867,520.032Z" style="fill:white;fill-rule:nonzero;"/>
            <path d="M992.776,562.562L925.909,614.88C924.574,615.925 923.797,617.018 923.58,618.16C923.363,619.303 923.645,620.817 924.428,622.705L922.36,624.323L900.826,596.8L902.894,595.183C904.538,596.396 905.94,597.035 907.101,597.099C908.262,597.163 909.51,596.672 910.845,595.628L977.713,543.31L956.28,515.917C955.269,514.624 954.199,513.865 953.069,513.638C951.939,513.411 950.418,513.698 948.506,514.5L946.888,512.433L969.694,494.589L971.312,496.656C970.113,498.358 969.478,499.775 969.407,500.907C969.335,502.039 969.805,503.251 970.816,504.543L1028.69,578.517C1029.74,579.852 1030.83,580.632 1031.96,580.857C1033.09,581.082 1034.61,580.795 1036.52,579.998L1038.14,582.066L1015.33,599.909L1013.71,597.842C1014.95,596.179 1015.6,594.771 1015.65,593.62C1015.7,592.469 1015.2,591.226 1014.16,589.891L992.776,562.562Z" style="fill:white;fill-rule:nonzero;"/>
            <path d="M959.292,665.97L1042.81,621.065C1044.26,620.288 1045.18,619.355 1045.59,618.267C1046,617.178 1045.98,615.637 1045.53,613.644L1047.84,612.401L1064.39,643.18L1062.08,644.423C1060.71,642.922 1059.45,642.048 1058.29,641.801C1057.13,641.554 1055.83,641.819 1054.39,642.596L970.868,687.501C969.374,688.304 968.418,689.268 967.999,690.394C967.58,691.52 967.606,693.042 968.079,694.961L965.767,696.204L949.219,665.425L951.531,664.182C952.945,665.657 954.219,666.525 955.352,666.785C956.485,667.045 957.798,666.773 959.292,665.97Z" style="fill:white;fill-rule:nonzero;"/>
            <path d="M1104.58,740.023C1110.15,758.746 1109.52,775.095 1102.66,789.068C1095.53,803.812 1083.57,813.68 1066.8,818.674C1056.53,821.733 1046.11,821.81 1035.54,818.903C1014.91,813.228 1000.91,798.013 993.537,773.258C988.009,754.692 988.671,738.422 995.523,724.449C999.172,716.967 1004.32,710.581 1010.96,705.292C1016.82,700.636 1023.42,697.215 1030.76,695.03C1041.5,691.831 1052.15,691.658 1062.7,694.511C1082.87,699.981 1096.83,715.152 1104.58,740.023ZM1086.36,745.533C1083.32,735.301 1077.74,727.679 1069.64,722.667C1060.06,716.723 1049.46,715.481 1037.83,718.942C1026.21,722.403 1018.01,729.242 1013.25,739.457C1009.21,748.087 1008.72,757.57 1011.8,767.906C1014.88,778.242 1020.46,785.89 1028.55,790.85C1033.37,793.814 1038.71,795.593 1044.59,796.185C1049.81,796.686 1054.91,796.196 1059.88,794.715C1072.03,791.098 1080.38,784.213 1084.94,774.06C1088.86,765.409 1089.34,755.9 1086.36,745.533Z" style="fill:white;fill-rule:nonzero;"/>
            <path d="M1092.67,880.751L1024.59,880.373C1022.89,880.364 1021.6,880.739 1020.73,881.5C1019.85,882.261 1019.13,883.624 1018.57,885.59L1015.94,885.575L1016.13,852.681L1018.75,852.696C1019.29,854.668 1019.99,856.039 1020.86,856.809C1021.73,857.58 1023.02,857.969 1024.71,857.979L1119.54,858.505C1121.18,858.514 1122.44,858.138 1123.32,857.378C1124.2,856.617 1124.91,855.254 1125.47,853.288L1128.1,853.303L1127.89,891.365L1125.26,891.35C1124.67,888.995 1123.42,887.812 1121.51,887.802C1120.19,887.794 1118.74,888.552 1117.15,890.074L1052.58,951.487L1119.02,951.855C1120.66,951.864 1121.92,951.489 1122.8,950.728C1123.68,949.967 1124.4,948.604 1124.95,946.638L1127.58,946.653L1127.4,979.547L1124.77,979.532C1124.24,977.56 1123.53,976.189 1122.66,975.419C1121.79,974.648 1120.54,974.259 1118.89,974.249L1024.07,973.723C1022.37,973.714 1021.09,974.089 1020.21,974.85C1019.33,975.611 1018.61,976.974 1018.05,978.94L1015.43,978.925L1015.62,943.652L1018.25,943.667C1018.73,945.967 1019.9,947.122 1021.75,947.132C1022.85,947.138 1024.77,945.809 1027.52,943.144L1092.67,880.751Z" style="fill:white;fill-rule:nonzero;"/>
        </g>
        <g transform="matrix(1.85625,0,0,1.85625,-1195.09,-866.04)">
            <path d="M594.603,1119.97L554.484,1125.29C552.398,1125.46 551.133,1125.67 550.689,1125.92C549.411,1126.63 549.081,1128.17 549.7,1130.52L548.366,1131.26L538.158,1112.94L539.491,1112.2C540.89,1113.86 542.354,1114.27 543.882,1113.41C544.299,1113.18 545.318,1112.11 546.939,1110.18L579.815,1070.49C581.449,1068.52 582.452,1067.01 582.824,1065.94C583.196,1064.88 583.159,1063.65 582.712,1062.26L584.045,1061.52L595.066,1081.29L593.733,1082.03C592.368,1080.5 591.061,1080.08 589.811,1080.78C589.172,1081.13 588.379,1081.87 587.432,1082.98L563.601,1111L600.657,1106.32C602.257,1106.12 603.265,1105.9 603.682,1105.67C604.96,1104.95 605.261,1103.57 604.584,1101.51L605.918,1100.76L617.439,1121.43L616.105,1122.18C614.552,1120.57 613.123,1120.12 611.817,1120.85C611.373,1121.1 610.671,1121.8 609.712,1122.95L586.082,1151.34L621.932,1146.06C623.73,1145.82 624.99,1145.5 625.712,1145.1C626.935,1144.42 627.183,1142.97 626.457,1140.75L627.79,1140.01L638.692,1159.57L637.359,1160.31C636.195,1159.14 635.16,1158.46 634.255,1158.27C633.349,1158.08 631.559,1158.17 628.884,1158.53L577.834,1165.61C575.4,1165.95 573.849,1166.3 573.182,1166.67C571.821,1167.43 571.524,1168.89 572.29,1171.05L570.957,1171.79L560.614,1153.24L561.948,1152.49C563.338,1154.27 564.811,1154.72 566.366,1153.86C566.894,1153.56 567.904,1152.43 569.396,1150.47L594.603,1119.97Z" style="fill:white;fill-rule:nonzero;"/>
            <path d="M610.227,1209.99L649.569,1171.35C650.25,1170.68 650.616,1170.01 650.667,1169.33C650.718,1168.66 650.455,1167.8 649.88,1166.76L650.969,1165.69L665.21,1180.19L664.121,1181.26C663.115,1180.64 662.268,1180.36 661.582,1180.41C660.896,1180.46 660.212,1180.82 659.531,1181.49L620.189,1220.13C619.486,1220.83 619.108,1221.52 619.057,1222.22C619.006,1222.91 619.268,1223.76 619.844,1224.75L618.755,1225.82L604.514,1211.33L605.603,1210.26C606.632,1210.85 607.484,1211.13 608.159,1211.09C608.834,1211.05 609.523,1210.68 610.227,1209.99Z" style="fill:white;fill-rule:nonzero;"/>
            <path d="M728.74,1233.94L713.807,1242.45L713.112,1241.08C713.313,1240.84 713.467,1240.63 713.572,1240.47C714.167,1239.57 714.036,1238.09 713.18,1236.04C710.625,1229.63 706.162,1224.33 699.79,1220.12C696.976,1218.27 694.266,1216.98 691.661,1216.25C689.744,1215.74 687.952,1215.7 686.283,1216.12C684.615,1216.55 683.369,1217.38 682.547,1218.63C681.2,1220.67 681.516,1222.88 683.496,1225.25C684.525,1226.46 686.997,1228.66 690.912,1231.85L696.745,1236.61C700.199,1239.46 702.847,1241.99 704.689,1244.19C706.53,1246.4 707.929,1248.71 708.886,1251.13C709.834,1253.62 710.132,1256.27 709.781,1259.09C709.43,1261.9 708.459,1264.51 706.866,1266.93C704.347,1270.75 700.873,1273.33 696.444,1274.67C692.429,1275.91 687.643,1275.63 682.086,1273.83C677.935,1272.5 673.854,1270.51 669.845,1267.87C662.65,1263.12 656.687,1256.71 651.954,1248.64C650.922,1246.96 650.261,1246.03 649.969,1245.84C649.623,1245.61 648.886,1245.55 647.758,1245.64L646.997,1244.28L661.69,1234.83L662.477,1236.15C662.32,1236.39 662.206,1236.56 662.136,1236.66C661.348,1237.86 661.192,1239.34 661.668,1241.1C662.378,1243.78 664.171,1246.86 667.046,1250.36C669.921,1253.86 672.979,1256.67 676.218,1258.81C679.749,1261.14 683.155,1262.53 686.437,1262.98C688.255,1263.23 689.938,1263.08 691.486,1262.52C693.034,1261.96 694.202,1261.09 694.989,1259.9C696.177,1258.1 696.055,1256.17 694.624,1254.12C693.62,1252.7 691.208,1250.41 687.39,1247.24L681.677,1242.56C677.842,1239.42 675.202,1237.1 673.757,1235.59C672.312,1234.09 671.02,1232.35 669.882,1230.38C668.254,1227.59 667.539,1224.54 667.736,1221.24C667.907,1218.27 668.913,1215.38 670.754,1212.59C673.785,1208 677.871,1205.24 683.01,1204.32C689.763,1203.09 697.282,1205.21 705.565,1210.67C709.043,1212.97 712.049,1215.46 714.583,1218.14C717.117,1220.83 720.003,1224.6 723.242,1229.45C724.377,1231.08 725.117,1232.01 725.462,1232.24C726.02,1232.6 726.873,1232.73 728.021,1232.6L728.74,1233.94Z" style="fill:white;fill-rule:nonzero;"/>
            <path d="M793.915,1296.15L798.596,1311.79L797.157,1312.25C796.549,1311.19 795.971,1310.58 795.424,1310.42C794.877,1310.25 793.117,1310.51 790.145,1311.19C783.989,1312.61 778.963,1313.29 775.068,1313.24C771.173,1313.2 766.763,1312.42 761.837,1310.91C752.017,1307.89 744.675,1303.09 739.81,1296.51C736.931,1292.66 735.044,1288.41 734.148,1283.74C733.095,1278.39 733.418,1272.95 735.118,1267.42C737.433,1259.88 741.649,1254.01 747.766,1249.8C756.961,1243.47 768.262,1242.37 781.67,1246.48C786.595,1248 790.663,1249.81 793.872,1251.93C797.081,1254.04 800.864,1257.43 805.221,1262.1C807.305,1264.3 808.621,1265.49 809.169,1265.66C809.716,1265.82 810.536,1265.64 811.631,1265.11L812.564,1266.3L799.908,1276.64L798.928,1275.44C799.138,1274.97 799.294,1274.57 799.396,1274.24C799.666,1273.36 799.539,1272.42 799.016,1271.41C798.493,1270.41 797.426,1269.06 795.815,1267.38C791.364,1262.69 786.128,1259.43 780.109,1257.58C772.994,1255.4 766.779,1255.43 761.461,1257.69C755.198,1260.32 751.035,1264.99 748.974,1271.7C746.913,1278.41 747.737,1284.61 751.445,1290.31C754.58,1295.16 759.705,1298.67 766.819,1300.86C772.839,1302.71 779.006,1302.94 785.321,1301.55C787.603,1301.05 789.243,1300.53 790.241,1299.99C791.239,1299.45 791.874,1298.74 792.144,1297.86C792.247,1297.52 792.338,1297.12 792.417,1296.64L793.915,1296.15Z" style="fill:white;fill-rule:nonzero;"/>
            <path d="M865.913,1258.7C877.274,1258.67 886.29,1261.71 892.961,1267.83C900.015,1274.23 903.558,1282.52 903.59,1292.69C903.61,1298.93 901.941,1304.75 898.585,1310.17C892.031,1320.75 881.243,1326.06 866.223,1326.11C854.957,1326.15 845.989,1323.11 839.318,1316.99C835.743,1313.73 833.025,1309.81 831.165,1305.23C829.53,1301.2 828.705,1296.95 828.69,1292.5C828.67,1285.98 830.322,1280.01 833.646,1274.6C840.01,1264.24 850.765,1258.94 865.913,1258.7ZM865.996,1269.77C859.788,1269.79 854.62,1271.65 850.493,1275.35C845.604,1279.72 843.171,1285.43 843.193,1292.48C843.215,1299.53 845.685,1305.23 850.601,1309.57C854.752,1313.24 859.963,1315.06 866.235,1315.04C872.507,1315.02 877.691,1313.16 881.786,1309.47C884.231,1307.27 886.1,1304.58 887.396,1301.39C888.533,1298.56 889.096,1295.64 889.087,1292.62C889.064,1285.25 886.594,1279.46 881.678,1275.25C877.495,1271.64 872.268,1269.82 865.996,1269.77Z" style="fill:white;fill-rule:nonzero;"/>
            <path d="M939.957,1271.99L952.004,1309.71C952.304,1310.65 952.744,1311.29 953.323,1311.64C953.902,1311.99 954.785,1312.14 955.973,1312.1L956.437,1313.55L938.214,1319.37L937.749,1317.92C938.743,1317.27 939.375,1316.63 939.644,1316.01C939.914,1315.39 939.898,1314.61 939.598,1313.67L922.819,1261.14C922.529,1260.23 922.094,1259.6 921.515,1259.25C920.936,1258.9 920.053,1258.75 918.865,1258.8L918.401,1257.34L939.487,1250.61L939.951,1252.06C938.755,1252.81 938.326,1253.71 938.665,1254.77C938.897,1255.5 939.578,1256.17 940.707,1256.78L986.292,1281.43L974.534,1244.62C974.244,1243.71 973.809,1243.08 973.23,1242.73C972.652,1242.38 971.768,1242.23 970.581,1242.28L970.116,1240.82L988.34,1235L988.804,1236.46C987.81,1237.11 987.179,1237.74 986.909,1238.36C986.64,1238.98 986.65,1239.75 986.941,1240.66L1003.72,1293.19C1004.02,1294.13 1004.46,1294.77 1005.04,1295.12C1005.62,1295.47 1006.5,1295.62 1007.69,1295.58L1008.15,1297.03L988.612,1303.28L988.147,1301.82C989.332,1301.14 989.761,1300.29 989.432,1299.26C989.238,1298.65 988.157,1297.83 986.189,1296.79L939.957,1271.99Z" style="fill:white;fill-rule:nonzero;"/>
            <path d="M1057.1,1196.63L1059.3,1213.68L1057.77,1213.8C1057.62,1213.52 1057.49,1213.3 1057.38,1213.15C1056.77,1212.25 1055.35,1211.81 1053.13,1211.83C1046.23,1211.75 1039.63,1213.87 1033.32,1218.16C1030.54,1220.06 1028.31,1222.08 1026.65,1224.21C1025.45,1225.79 1024.73,1227.44 1024.49,1229.14C1024.25,1230.84 1024.55,1232.31 1025.39,1233.55C1026.76,1235.57 1028.92,1236.11 1031.87,1235.18C1033.38,1234.69 1036.36,1233.24 1040.8,1230.83L1047.41,1227.25C1051.36,1225.13 1054.71,1223.64 1057.45,1222.78C1060.18,1221.91 1062.86,1221.5 1065.46,1221.53C1068.12,1221.6 1070.69,1222.33 1073.16,1223.72C1075.63,1225.12 1077.68,1227.01 1079.31,1229.4C1081.88,1233.18 1082.95,1237.38 1082.51,1241.98C1082.13,1246.17 1080.05,1250.49 1076.27,1254.94C1073.46,1258.28 1070.08,1261.3 1066.11,1264C1058.99,1268.85 1050.79,1271.94 1041.52,1273.25C1039.59,1273.57 1038.47,1273.82 1038.18,1274.02C1037.84,1274.25 1037.5,1274.91 1037.16,1275.99L1035.61,1276.18L1032.45,1258.99L1033.97,1258.77C1034.13,1259 1034.25,1259.17 1034.32,1259.28C1035.12,1260.46 1036.43,1261.17 1038.24,1261.4C1040.99,1261.76 1044.53,1261.27 1048.85,1259.94C1053.18,1258.61 1056.94,1256.85 1060.15,1254.67C1063.65,1252.29 1066.23,1249.66 1067.89,1246.8C1068.82,1245.21 1069.31,1243.6 1069.38,1241.95C1069.46,1240.31 1069.09,1238.9 1068.29,1237.71C1067.07,1235.93 1065.25,1235.31 1062.81,1235.86C1061.11,1236.25 1058.07,1237.61 1053.7,1239.94L1047.19,1243.44C1042.83,1245.8 1039.68,1247.36 1037.74,1248.12C1035.8,1248.89 1033.7,1249.42 1031.44,1249.73C1028.25,1250.17 1025.16,1249.68 1022.18,1248.24C1019.49,1246.95 1017.21,1244.93 1015.32,1242.16C1012.22,1237.61 1011.23,1232.79 1012.33,1227.68C1013.76,1220.97 1018.57,1214.82 1026.77,1209.23C1030.22,1206.89 1033.66,1205.05 1037.11,1203.73C1040.56,1202.4 1045.14,1201.17 1050.86,1200.01C1052.8,1199.58 1053.93,1199.25 1054.28,1199.02C1054.83,1198.64 1055.27,1197.9 1055.59,1196.79L1057.1,1196.63Z" style="fill:white;fill-rule:nonzero;"/>
            <path d="M1113.73,1216.43L1073.82,1178.38C1073.13,1177.72 1072.44,1177.37 1071.77,1177.35C1071.09,1177.32 1070.24,1177.61 1069.22,1178.21L1068.12,1177.16L1082.14,1162.45L1083.25,1163.51C1082.66,1164.53 1082.41,1165.39 1082.48,1166.07C1082.56,1166.76 1082.94,1167.43 1083.63,1168.09L1123.54,1206.14C1124.25,1206.82 1124.96,1207.18 1125.66,1207.21C1126.36,1207.23 1127.19,1206.94 1128.17,1206.34L1129.27,1207.39L1115.25,1222.1L1114.14,1221.04C1114.7,1220 1114.95,1219.14 1114.89,1218.46C1114.83,1217.79 1114.44,1217.11 1113.73,1216.43Z" style="fill:white;fill-rule:nonzero;"/>
            <path d="M1123.19,1143.84L1157.38,1163.82C1158.23,1164.32 1158.98,1164.5 1159.65,1164.38C1160.31,1164.25 1161.07,1163.77 1161.92,1162.94L1163.24,1163.71L1153.59,1180.23L1152.27,1179.46C1152.57,1178.31 1152.62,1177.42 1152.4,1176.77C1152.19,1176.13 1151.65,1175.56 1150.8,1175.07L1103.19,1147.24C1102.37,1146.76 1101.62,1146.58 1100.96,1146.71C1100.29,1146.84 1099.54,1147.32 1098.68,1148.14L1097.37,1147.38L1108.53,1128.26L1109.85,1129.03C1109.46,1130.39 1109.75,1131.35 1110.71,1131.91C1111.37,1132.3 1112.32,1132.34 1113.57,1132.03L1163.94,1119.87L1130.58,1100.37C1129.76,1099.89 1129.01,1099.71 1128.35,1099.84C1127.68,1099.97 1126.93,1100.44 1126.08,1101.27L1124.76,1100.5L1134.41,1083.99L1135.73,1084.76C1135.42,1085.9 1135.38,1086.8 1135.59,1087.44C1135.81,1088.08 1136.33,1088.64 1137.15,1089.12L1184.77,1116.95C1185.62,1117.45 1186.38,1117.63 1187.04,1117.5C1187.7,1117.38 1188.46,1116.9 1189.31,1116.07L1190.63,1116.84L1180.28,1134.55L1178.96,1133.78C1179.39,1132.48 1179.14,1131.56 1178.2,1131.02C1177.65,1130.69 1176.3,1130.81 1174.14,1131.35L1123.19,1143.84Z" style="fill:white;fill-rule:nonzero;"/>
        </g>
    </g>
</svg>
